<svg
    xmlns="http://www.w3.org/2000/svg"
    viewBox="0 0 160 200"
    id="vector">
    <path
        id="path"
        d="M 114.833 183.85 L 45.167 183.85 C 44.34 183.85 43.54 183.558 42.907 183.026 C 42.274 182.493 41.85 181.755 41.708 180.94 L 13.789 20.262 C 13.672 19.587 13.754 18.893 14.027 18.265 C 14.299 17.637 14.749 17.102 15.321 16.726 C 15.893 16.35 16.563 16.15 17.248 16.15 L 142.748 16.15 C 143.433 16.15 144.103 16.35 144.675 16.726 C 145.247 17.102 145.697 17.637 145.969 18.265 C 146.242 18.893 146.324 19.587 146.207 20.262 L 118.292 180.94 C 118.15 181.755 117.726 182.493 117.093 183.026 C 116.46 183.558 115.66 183.85 114.833 183.85 Z"
        fill="#69cdd8"/>
    <path
        id="path_1"
        d="M 133.045 32.779 L 127.936 64.862 L 122.713 96.927 C 120.981 107.616 119.379 118.327 117.377 128.971 C 116.369 134.291 115.361 139.612 114.255 144.915 L 112.593 152.869 C 111.993 155.512 111.437 158.163 110.801 160.8 L 110.575 160.761 C 110.865 158.061 111.235 155.381 111.563 152.69 L 112.682 144.641 C 113.43 139.276 114.275 133.928 115.12 128.579 C 116.826 117.885 118.932 107.26 120.907 96.613 L 126.807 64.666 L 132.82 32.739 Z"
        fill="#bbeef4"/>
</svg>
