<svg
    xmlns="http://www.w3.org/2000/svg"
    viewBox="0 0 160 200"
    id="vector">
    <path
        id="path"
        d="M 146.024 135.476 L 146.024 135.476 Q 145.797 135.746 145.568 136.015 Q 142.958 139.069 140.056 141.976 C 113.756 168.276 77.345 176.615 49.442 165.329 L 49.442 165.329 L 49.418 165.319 Q 48.907 165.112 48.398 164.895 C 38.67 160.94 34.39 161.624 34.376 161.626 C 31.714 162.036 28.989 161.616 26.573 160.424 C 24.158 159.232 22.167 157.325 20.872 154.963 C 19.578 152.601 19.041 149.896 19.336 147.219 C 19.436 146.268 19.905 140.96 18.595 137.75 Q 18.308 137.219 18.033 136.682 L 18.033 136.682 L 18.033 136.682 C 3.457 108.245 11.133 68.912 39.06 40.982 C 41.923 38.118 44.952 35.425 48.132 32.918 L 48.147 32.907 C 48.315 32.774 48.485 32.64 48.654 32.507 C 60.996 23.373 91.112 37.647 117.183 65.327 C 143.084 92.837 155.537 123.538 146.024 135.476 Z"
        fill="#fede0d"/>
    <path
        id="path_1"
        d="M 146.024 135.476 L 146.024 135.476 C 145.877 135.66 145.724 135.839 145.568 136.015 Q 145.236 136.384 144.874 136.725 C 133.297 147.625 102.13 133.34 75.259 104.81 C 48.388 76.28 35.987 44.32 47.564 33.417 Q 47.837 33.159 48.126 32.917 L 48.141 32.906 C 48.306 32.768 48.475 32.636 48.648 32.506 C 60.99 23.372 91.106 37.646 117.177 65.326 C 143.084 92.837 155.537 123.538 146.024 135.476 Z"
        fill="#fff063"/>
    <path
        id="path_2"
        d="M 115.456 66.811 C 136.612 89.273 147.996 114.066 144.129 127.031 C 143.572 129.117 142.444 131.007 140.872 132.488 C 139.3 133.968 137.345 134.981 135.229 135.411 C 122.055 138.495 97.988 125.648 76.829 103.186 C 52.129 76.958 40.747 47.554 51.412 37.509 C 62.077 27.464 90.753 40.583 115.456 66.811 Z"
        fill="#fffacb"/>
    <path
        id="path_3"
        d="M 55.081 49.75 C 53.655 48.55 52.701 46.827 53.031 46.05 C 53.644 44.555 54.569 43.209 55.745 42.101 C 56.921 40.993 58.32 40.15 59.849 39.628 C 60.642 39.346 62.3 40.4 63.418 41.896 L 86.918 73.336 C 88.834 75.899 87.5 77.156 85.056 75.09 Z"
        fill="#fff063"/>
    <path
        id="path_4"
        d="M 137.21 120.246 C 138.636 121.446 139.59 123.169 139.26 123.946 C 138.647 125.441 137.722 126.787 136.546 127.895 C 135.37 129.003 133.971 129.846 132.442 130.368 C 131.648 130.651 129.991 129.596 128.873 128.1 L 105.373 96.66 C 103.457 94.097 104.791 92.841 107.235 94.907 Z"
        fill="#fff063"/>
    <path
        id="path_5"
        d="M 66.611 41.638 C 65.57 40.138 65.611 38.943 66.7 39.072 C 69.081 39.376 71.429 39.901 73.713 40.64 C 76.376 41.492 78.978 42.525 81.5 43.733 C 82.848 44.371 85.079 46.645 85.451 47.933 L 92.529 74.479 C 93.166 76.692 90.27 75.779 88.487 73.206 Z"
        fill="#fff063"/>
    <path
        id="path_6"
        d="M 125.68 128.358 C 126.721 129.858 126.68 131.053 125.591 130.924 C 123.21 130.621 120.862 130.096 118.578 129.357 C 115.916 128.504 113.315 127.47 110.793 126.263 C 109.445 125.625 106.334 122.791 105.962 121.499 L 99.124 95.04 C 98.487 92.827 102.024 94.212 103.806 96.786 Z"
        fill="#fff063"/>
    <path
        id="path_7"
        d="M 87.418 48.4 C 87.159 47.174 90.181 48.648 91.618 49.635 Q 95.864 52.554 100.268 56.135 C 103.195 58.523 106.039 61.035 108.777 63.635 C 110.167 64.953 112.201 67.727 111.685 68.321 L 99.559 79.691 C 98.675 80.709 95.317 77.97 94.873 75.868 Z"
        fill="#fff063"/>
    <path
        id="path_8"
        d="M 102.851 119.89 C 103.143 121.152 102.108 121.345 100.619 120.302 Q 96.219 117.221 91.642 113.453 C 88.599 110.942 85.642 108.31 82.785 105.588 C 81.336 104.207 78.865 100.17 79.379 99.574 L 91.838 89.357 C 92.718 88.334 96.208 91.214 96.709 93.375 Z"
        fill="#fff063"/>
    <path
        id="path_9"
        d="M 113.394 69.956 C 114.026 69.485 116.694 71.888 118.121 73.556 C 120.921 76.84 123.629 80.223 126.207 83.681 C 128.785 87.139 131.128 90.527 133.231 93.821 C 134.298 95.492 134.08 96.553 132.766 96.108 L 105.139 86.769 C 102.887 86.008 99.93 82.042 101.012 81.235 Z"
        fill="#fff063"/>
    <path
        id="path_10"
        d="M 77.489 98.125 C 76.866 98.604 75.259 97.755 74.029 96.292 C 71.605 93.408 69.276 90.426 67.073 87.367 C 64.87 84.308 62.884 81.297 61.116 78.36 C 60.216 76.87 60.492 75.867 61.699 76.198 L 87.073 83.145 C 89.142 83.711 91.673 87.22 90.6 88.045 Z"
        fill="#fff063"/>
    <path
        id="path_11"
        d="M 133.055 98.67 C 134.565 99.361 135.775 100.576 136.46 102.088 C 137.514 104.677 138.39 107.336 139.082 110.045 C 139.683 112.369 140.067 114.744 140.227 117.139 C 140.291 118.239 139.098 118.203 137.661 117.074 L 107.454 93.35 C 104.991 91.416 104.254 88.471 106.425 89.239 Z"
        fill="#fff063"/>
    <path
        id="path_12"
        d="M 60.587 73.635 C 59.32 73.186 56.387 69.291 55.83 67.908 C 54.776 65.319 53.9 62.661 53.209 59.952 C 52.608 57.628 52.224 55.252 52.064 52.857 C 52 51.757 53.193 51.793 54.63 52.922 L 84.837 76.646 C 87.3 78.58 88.066 82.059 85.9 81.29 Z"
        fill="#fff063"/>
    <path
        id="path_13"
        d="M 123.764 113.006 C 123.299 112.761 121.939 112.106 121.323 111.815 C 121.301 111.801 121.275 111.794 121.249 111.797 C 121.224 111.8 121.199 111.811 121.181 111.83 C 121.163 111.849 121.152 111.873 121.15 111.899 C 121.147 111.925 121.154 111.951 121.169 111.972 C 121.474 112.572 122.142 113.833 122.351 114.229 C 122.398 114.318 122.451 114.404 122.506 114.489 C 122.55 114.558 122.599 114.625 122.651 114.689 C 122.777 114.871 122.95 115.017 123.151 115.11 C 123.352 115.204 123.574 115.242 123.795 115.22 C 124.015 115.199 124.227 115.119 124.406 114.989 C 124.8 114.589 124.68 113.82 124.076 113.232 L 124.055 113.212 C 123.967 113.131 123.869 113.062 123.764 113.006 Z"
        fill="#fffacb"/>
    <path
        id="path_14"
        d="M 99.26 68.308 C 99.22 69.263 99.185 71.992 99.171 73.226 C 99.171 73.46 99.358 73.512 99.471 73.31 C 100.079 72.262 101.354 70.005 101.752 69.299 Q 101.887 69.06 102.004 68.807 C 102.08 68.643 102.063 68.689 102.182 68.39 C 102.707 67.063 102.277 65.613 101.497 65.399 C 100.717 65.185 99.772 66.112 99.359 67.613 L 99.345 67.665 C 99.296 67.876 99.267 68.091 99.26 68.308 Z"
        fill="#fffacb"/>
    <path
        id="path_15"
        d="M 91.774 100.246 C 91.774 99.667 91.716 97.997 91.687 97.246 C 91.685 97.203 91.667 97.163 91.636 97.134 C 91.605 97.105 91.563 97.089 91.521 97.09 C 91.478 97.091 91.437 97.109 91.408 97.14 C 90.894 97.674 89.818 98.832 89.481 99.195 C 89.406 99.277 89.335 99.362 89.27 99.452 C 89.216 99.523 89.167 99.598 89.124 99.676 C 89.003 99.909 88.95 100.172 88.97 100.434 C 88.989 100.696 89.082 100.947 89.237 101.159 C 89.392 101.372 89.603 101.537 89.846 101.636 C 90.095 101.716 90.36 101.728 90.616 101.671 C 90.871 101.614 91.106 101.491 91.297 101.313 C 91.489 101.135 91.63 100.909 91.705 100.659 L 91.715 100.629 C 91.755 100.505 91.774 100.376 91.774 100.246 Z"
        fill="#fffacb"/>
</svg>
