<svg
    xmlns="http://www.w3.org/2000/svg"
    viewBox="0 0 160 200"
    id="vector">
    <defs>
        <clipPath id="clip_path_8">
            <path d="M 93.732 189.375 L 33.21 189.375 C 32.492 189.375 31.796 189.121 31.246 188.659 C 30.696 188.197 30.327 187.555 30.204 186.847 L 8.06 59.4 L 14.943 57.748 C 21.873 56.068 29.015 55.434 36.133 55.868 C 43.188 56.394 50.175 57.61 56.993 59.5 L 75.673 65.257 C 81.03 66.911 86.562 67.932 92.157 68.3 C 94.842 68.472 97.536 68.451 100.218 68.238 C 102.218 68.079 104.205 67.778 106.163 67.338 C 107.663 66.997 109.137 66.554 110.576 66.012 L 118.229 63.161 L 96.737 186.847 C 96.614 187.555 96.245 188.197 95.695 188.659 C 95.146 189.121 94.45 189.375 93.732 189.375 Z"/>
        </clipPath>
        <clipPath id="clip_path_9">
            <path d="M 93.732 189.375 L 33.21 189.375 C 32.492 189.375 31.796 189.121 31.246 188.659 C 30.696 188.197 30.327 187.555 30.204 186.847 L 8.06 59.4 L 14.943 57.748 C 21.873 56.068 29.015 55.434 36.133 55.868 C 43.188 56.394 50.175 57.61 56.993 59.5 L 75.673 65.257 C 81.03 66.911 86.562 67.932 92.157 68.3 C 94.842 68.472 97.536 68.451 100.218 68.238 C 102.218 68.079 104.205 67.778 106.163 67.338 C 107.663 66.997 109.137 66.554 110.576 66.012 L 118.229 63.161 L 96.737 186.847 C 96.614 187.555 96.245 188.197 95.695 188.659 C 95.146 189.121 94.45 189.375 93.732 189.375 Z"/>
        </clipPath>
    </defs>
    <path
        id="path"
        d="M 93.732 189.375 L 33.21 189.375 C 32.492 189.375 31.796 189.121 31.246 188.659 C 30.696 188.197 30.327 187.555 30.204 186.847 L 5.949 47.256 C 5.847 46.67 5.919 46.067 6.156 45.521 C 6.392 44.975 6.783 44.51 7.281 44.184 C 7.778 43.858 8.36 43.684 8.955 43.684 L 117.987 43.684 C 118.582 43.684 119.164 43.858 119.661 44.184 C 120.158 44.511 120.549 44.976 120.786 45.521 C 121.022 46.067 121.094 46.67 120.992 47.256 L 96.737 186.847 C 96.614 187.555 96.245 188.197 95.695 188.659 C 95.146 189.121 94.45 189.375 93.732 189.375 Z"
        fill="#69cdd8"/>
    <path
        id="path_1"
        d="M 93.732 189.375 L 33.21 189.375 C 32.492 189.375 31.796 189.121 31.246 188.659 C 30.696 188.197 30.327 187.555 30.204 186.847 L 8.06 59.4 L 14.943 57.748 C 21.873 56.068 29.015 55.434 36.133 55.868 C 43.188 56.394 50.175 57.61 56.993 59.5 L 75.673 65.257 C 81.03 66.911 86.562 67.932 92.157 68.3 C 94.842 68.472 97.536 68.451 100.218 68.238 C 102.218 68.079 104.205 67.778 106.163 67.338 C 107.663 66.997 109.137 66.554 110.576 66.012 L 118.229 63.161 L 96.737 186.847 C 96.614 187.555 96.245 188.197 95.695 188.659 C 95.146 189.121 94.45 189.375 93.732 189.375 Z"
        fill="#fff063"/>
    <path
        id="path_2"
        d="M 47.234 103.815 L 74.98 106.377 C 75.931 106.465 76.808 106.927 77.418 107.662 C 78.028 108.396 78.322 109.343 78.234 110.294 L 75.673 138.04 C 75.585 138.991 75.123 139.868 74.388 140.478 C 73.654 141.088 72.707 141.382 71.756 141.294 L 44.01 138.733 C 43.381 138.675 42.777 138.452 42.261 138.087 C 41.745 137.722 41.334 137.228 41.07 136.653 C 40.805 136.079 40.697 135.445 40.755 134.816 L 43.317 107.07 C 43.375 106.441 43.598 105.837 43.963 105.321 C 44.328 104.805 44.822 104.394 45.397 104.13 C 45.971 103.865 46.605 103.757 47.234 103.815 Z"
        fill="#ffffff"
        fill-opacity="0.54"
        stroke-opacity="0.54"/>
    <path
        id="path_3"
        d="M 22.873 85.806 C 24.352 84.352 25.873 82.952 27.401 81.56 C 28.124 80.821 28.902 80.137 29.727 79.514 C 30.587 78.903 31.523 78.407 32.511 78.036 L 32.594 78.136 C 32.022 79.022 31.338 79.831 30.56 80.543 C 29.776 81.217 28.942 81.832 28.067 82.382 C 26.382 83.582 24.691 84.769 22.957 85.905 Z"
        fill="#ffffff"/>
    <path
        id="path_4"
        d="M 34.4 76.742 C 34.453 76.395 34.583 76.065 34.779 75.774 C 35.111 75.255 35.602 74.857 36.179 74.639 C 36.505 74.508 36.856 74.452 37.207 74.475 C 37.156 74.823 37.026 75.154 36.829 75.445 C 36.661 75.701 36.455 75.931 36.218 76.125 C 35.975 76.315 35.706 76.467 35.418 76.577 C 35.095 76.706 34.747 76.763 34.4 76.742 Z"
        fill="#ffffff"/>
    <path
        id="path_5"
        d="M 71.611 137.554 C 71.782 133.967 72.033 130.389 72.297 126.813 C 72.359 125.021 72.513 123.233 72.757 121.456 C 73.039 119.668 73.481 117.908 74.078 116.199 L 74.234 116.217 C 74.426 118.017 74.455 119.831 74.321 121.637 C 74.154 123.422 73.896 125.198 73.548 126.957 C 72.989 130.5 72.419 134.04 71.767 137.572 Z"
        fill="#ffffff"/>
    <path
        id="path_6"
        d="M 36.886 169.824 L 40.263 173.331 C 40.789 173.929 41.357 174.488 41.963 175.004 C 42.478 175.5 43.158 175.79 43.872 175.819 C 44.573 175.661 45.23 175.346 45.793 174.9 C 46.479 174.467 47.186 174.065 47.887 173.656 C 49.299 172.85 50.73 172.076 52.203 171.37 L 52.256 171.454 C 50.991 172.486 49.684 173.454 48.356 174.383 C 47.688 174.842 47.026 175.31 46.344 175.746 C 45.996 175.954 45.692 176.207 45.273 176.415 C 44.845 176.644 44.366 176.762 43.88 176.759 C 42.962 176.662 42.109 176.235 41.48 175.559 C 40.888 174.982 40.341 174.361 39.842 173.701 L 36.809 169.887 Z"
        fill="#ffffff"/>
    <path
        id="path_7"
        d="M 110.889 58.131 L 106.482 86.01 L 101.969 113.87 C 100.469 123.159 99.099 132.47 97.35 141.712 C 96.468 146.333 95.586 150.954 94.613 155.559 L 93.15 162.466 C 92.62 164.761 92.129 167.066 91.564 169.352 L 91.352 169.315 C 91.592 166.969 91.907 164.637 92.182 162.298 L 93.134 155.298 C 93.771 150.635 94.5 145.987 95.229 141.34 C 96.7 132.047 98.547 122.82 100.272 113.572 L 105.422 85.822 L 110.677 58.09 Z"
        fill="#fffdea"/>
    <g id="group">
        <path
            id="path_8"
            clip-path="url(#clip_path_8)"
            d="M 9.969 88.778 L 36.118 68.868 C 36.711 68.416 37.413 68.129 38.152 68.034 C 38.892 67.94 39.643 68.041 40.331 68.329 C 41.018 68.617 41.618 69.081 42.07 69.674 L 61.98 95.823 C 62.432 96.416 62.719 97.118 62.814 97.857 C 62.908 98.597 62.807 99.348 62.519 100.036 C 62.231 100.723 61.767 101.323 61.174 101.775 L 35.025 121.685 C 34.432 122.137 33.73 122.424 32.991 122.519 C 32.251 122.613 31.5 122.512 30.812 122.224 C 30.125 121.936 29.525 121.472 29.073 120.879 L 9.163 94.73 C 8.711 94.137 8.424 93.435 8.329 92.696 C 8.235 91.956 8.336 91.205 8.624 90.517 C 8.912 89.83 9.376 89.23 9.969 88.778 Z"
            fill="#ffffff"
            fill-opacity="0.54"
            stroke-opacity="0.54"/>
        <path
            id="path_9"
            clip-path="url(#clip_path_9)"
            d="M 22.648 148.069 L 49.331 129.787 C 50.245 129.161 51.371 128.923 52.46 129.127 C 53.549 129.33 54.514 129.958 55.14 130.872 L 73.423 157.554 C 74.049 158.468 74.287 159.594 74.083 160.683 C 73.88 161.772 73.252 162.737 72.338 163.363 L 45.655 181.646 C 44.741 182.272 43.615 182.51 42.526 182.306 C 41.437 182.103 40.472 181.475 39.846 180.561 L 21.563 153.879 C 21.148 153.274 20.9 152.57 20.844 151.839 C 20.787 151.107 20.924 150.374 21.241 149.712 C 21.557 149.05 22.043 148.484 22.648 148.069 Z"
            fill="#ffffff"
            fill-opacity="0.54"
            stroke-opacity="0.54"/>
    </g>
    <path
        id="path_10"
        d="M 121.038 43.684 M 87.979 43.684 C 87.979 34.92 91.464 26.505 97.662 20.308 C 103.859 14.11 112.274 10.625 121.038 10.625 C 129.802 10.625 138.217 14.11 144.414 20.308 C 150.612 26.505 154.097 34.92 154.097 43.684 C 154.119 50.679 151.921 57.503 147.82 63.169 C 143.72 68.836 137.925 73.058 131.274 75.223 C 124.623 77.389 117.453 77.389 110.802 75.223 C 104.151 73.058 98.356 68.836 94.256 63.169 C 90.155 57.503 87.957 50.679 87.979 43.684"
        fill="#fede0d"/>
    <path
        id="path_11"
        d="M 121.038 43.684 M 89.31 43.684 C 89.289 36.971 91.399 30.421 95.334 24.983 C 99.27 19.545 104.831 15.493 111.214 13.415 C 117.597 11.336 124.479 11.336 130.862 13.415 C 137.245 15.493 142.806 19.545 146.742 24.983 C 150.677 30.421 152.787 36.971 152.766 43.684 C 152.766 52.096 149.421 60.171 143.473 66.119 C 137.525 72.067 129.45 75.412 121.038 75.412 C 112.626 75.412 104.551 72.067 98.603 66.119 C 92.655 60.171 89.31 52.096 89.31 43.684"
        fill="#fff063"/>
    <path
        id="path_12"
        d="M 121.038 43.684 M 91.978 43.684 C 91.978 37.548 93.921 31.567 97.528 26.603 C 101.135 21.639 106.222 17.942 112.058 16.046 C 117.894 14.15 124.182 14.15 130.018 16.046 C 135.854 17.942 140.941 21.639 144.548 26.603 C 148.155 31.567 150.098 37.548 150.098 43.684 C 150.098 51.388 147.034 58.785 141.587 64.233 C 136.139 69.68 128.742 72.744 121.038 72.744 C 113.334 72.744 105.937 69.68 100.489 64.233 C 95.042 58.785 91.978 51.388 91.978 43.684"
        fill="#fffacb"/>
    <path
        id="path_13"
        d="M 139.836 28.1 C 140.162 27.877 140.418 27.567 140.575 27.205 C 140.732 26.843 140.784 26.444 140.724 26.053 C 140.664 25.663 140.495 25.298 140.236 25 C 137.078 20.984 132.668 18.137 127.708 16.913 C 127.464 16.855 127.208 16.865 126.97 16.942 C 126.731 17.02 126.518 17.161 126.354 17.351 C 126.191 17.542 126.083 17.773 126.042 18.021 L 122.366 38.979 C 122.336 39.151 122.375 39.329 122.476 39.472 C 122.576 39.615 122.73 39.712 122.902 39.743 C 123.074 39.773 123.252 39.733 123.395 39.633 Z"
        fill="#fff063"/>
    <path
        id="path_14"
        d="M 147.739 44.921 C 148.335 39.711 147.167 34.449 144.424 29.98 C 144.296 29.761 144.108 29.582 143.884 29.463 C 143.659 29.344 143.406 29.29 143.153 29.308 C 142.899 29.325 142.656 29.412 142.449 29.56 L 126.021 41.086 C 125.834 41.217 125.707 41.417 125.667 41.642 C 125.628 41.867 125.679 42.098 125.81 42.285 C 125.941 42.472 126.141 42.599 126.366 42.639 L 146.132 46.105 C 146.378 46.149 146.631 46.126 146.865 46.037 C 147.098 45.948 147.303 45.797 147.457 45.601 C 147.611 45.404 147.709 45.169 147.739 44.921 Z"
        fill="#fff063"/>
    <path
        id="path_15"
        d="M 101.342 59.286 C 101.133 59.43 100.968 59.629 100.866 59.862 C 100.763 60.094 100.728 60.351 100.763 60.602 C 100.798 60.854 100.903 61.091 101.065 61.286 C 104.314 65.357 108.833 68.227 113.9 69.435 C 114.143 69.491 114.398 69.479 114.635 69.401 C 114.872 69.323 115.084 69.182 115.247 68.993 C 115.41 68.803 115.518 68.573 115.56 68.327 L 119 48.738 C 119.04 48.508 118.987 48.271 118.853 48.08 C 118.719 47.888 118.514 47.758 118.284 47.718 C 118.053 47.677 117.816 47.73 117.625 47.864 Z"
        fill="#fff063"/>
    <path
        id="path_16"
        d="M 146.851 50.861 C 146.911 50.616 146.902 50.359 146.826 50.118 C 146.75 49.878 146.61 49.662 146.42 49.496 C 146.231 49.329 145.999 49.217 145.751 49.173 L 124.663 45.473 C 124.442 45.435 124.215 45.485 124.031 45.614 C 123.848 45.743 123.723 45.94 123.684 46.16 C 123.646 46.381 123.696 46.608 123.825 46.792 L 135.625 63.618 C 135.858 63.95 136.18 64.211 136.554 64.37 C 136.927 64.529 137.338 64.581 137.74 64.518 C 138.141 64.456 138.517 64.283 138.825 64.018 C 142.831 60.598 145.643 55.988 146.851 50.861 Z"
        fill="#fff063"/>
    <path
        id="path_17"
        d="M 118.972 70.326 C 124.19 70.92 129.459 69.751 133.936 67.006 C 134.157 66.876 134.337 66.688 134.457 66.461 C 134.577 66.235 134.631 65.98 134.614 65.724 C 134.596 65.469 134.508 65.223 134.359 65.015 L 123.056 48.9 C 122.938 48.731 122.772 48.601 122.58 48.527 C 122.388 48.452 122.178 48.436 121.977 48.481 C 121.776 48.526 121.593 48.629 121.451 48.778 C 121.308 48.927 121.213 49.115 121.178 49.318 L 117.778 68.703 C 117.733 68.951 117.756 69.207 117.845 69.443 C 117.935 69.679 118.087 69.886 118.286 70.041 C 118.484 70.197 118.722 70.295 118.972 70.326 Z"
        fill="#fff063"/>
    <path
        id="path_18"
        d="M 95.847 41.488 C 95.6 41.444 95.345 41.469 95.11 41.559 C 94.876 41.65 94.671 41.803 94.518 42.002 C 94.364 42.201 94.268 42.438 94.24 42.688 C 93.802 46.651 96.177 53.303 97.484 56.588 C 97.61 56.904 97.828 57.174 98.111 57.364 C 98.393 57.553 98.727 57.652 99.067 57.648 C 99.407 57.645 99.738 57.538 100.016 57.342 L 115.716 46.327 C 115.885 46.208 116 46.027 116.036 45.823 C 116.072 45.619 116.025 45.409 115.907 45.24 C 115.788 45.071 115.607 44.955 115.403 44.919 Z"
        fill="#fff063"/>
    <path
        id="path_19"
        d="M 102.787 23.789 C 98.584 27.124 95.625 31.779 94.388 37 C 94.33 37.244 94.341 37.5 94.419 37.738 C 94.497 37.977 94.639 38.189 94.829 38.353 C 95.02 38.516 95.252 38.623 95.5 38.663 L 115.611 42.19 C 115.784 42.22 115.963 42.199 116.124 42.128 C 116.285 42.056 116.421 41.939 116.516 41.791 C 116.61 41.642 116.658 41.469 116.654 41.293 C 116.65 41.117 116.594 40.946 116.493 40.802 L 104.763 24.086 C 104.621 23.879 104.425 23.716 104.197 23.613 C 103.968 23.51 103.716 23.472 103.467 23.503 C 103.219 23.534 102.983 23.633 102.787 23.789 Z"
        fill="#fff063"/>
    <path
        id="path_20"
        d="M 123.4 18.371 C 123.462 18.012 123.379 17.642 123.17 17.344 C 122.961 17.046 122.642 16.842 122.283 16.777 C 117.129 15.92 111.838 17.089 107.524 20.036 C 107.286 20.186 107.093 20.398 106.966 20.649 C 106.839 20.901 106.782 21.182 106.803 21.463 C 106.823 21.744 106.919 22.014 107.081 22.244 L 118.665 38.76 C 118.767 38.904 118.921 39.002 119.095 39.032 C 119.268 39.063 119.447 39.023 119.591 38.922 C 119.736 38.821 119.834 38.666 119.865 38.493 Z"
        fill="#fff063"/>
    <path
        id="path_21"
        d="M 134.618 52.354 C 134.071 52.19 132.475 51.787 131.752 51.605 C 131.711 51.595 131.668 51.601 131.632 51.623 C 131.596 51.644 131.57 51.679 131.559 51.72 C 131.548 51.76 131.554 51.804 131.575 51.84 C 131.938 52.474 132.735 53.813 132.984 54.231 C 133.04 54.325 133.102 54.416 133.169 54.502 C 133.221 54.573 133.279 54.64 133.341 54.702 C 133.528 54.881 133.761 55.004 134.015 55.058 C 134.268 55.112 134.531 55.094 134.775 55.006 C 135.018 54.918 135.233 54.765 135.394 54.562 C 135.539 54.349 135.624 54.101 135.641 53.844 C 135.659 53.587 135.607 53.33 135.492 53.1 C 135.376 52.869 135.202 52.674 134.986 52.533 L 134.96 52.515 C 134.855 52.443 134.74 52.389 134.618 52.354 Z"
        fill="#fffacb"/>
    <path
        id="path_22"
        d="M 116.505 27.437 C 116.805 28.018 117.757 29.653 118.188 30.392 C 118.212 30.434 118.252 30.465 118.298 30.477 C 118.345 30.49 118.395 30.484 118.437 30.46 C 118.479 30.436 118.51 30.397 118.523 30.35 C 118.753 29.543 119.214 27.815 119.358 27.275 C 119.39 27.154 119.415 27.03 119.432 26.906 C 119.448 26.807 119.457 26.707 119.459 26.606 C 119.456 26.309 119.37 26.019 119.212 25.767 C 119.053 25.516 118.828 25.314 118.561 25.184 C 118.294 25.054 117.996 25 117.7 25.03 C 117.409 25.082 117.137 25.211 116.912 25.403 C 116.687 25.595 116.518 25.843 116.421 26.122 C 116.324 26.402 116.303 26.702 116.361 26.992 L 116.361 27.028 C 116.388 27.171 116.436 27.309 116.505 27.437 Z"
        fill="#fffacb"/>
    <path
        id="path_23"
        d="M 106.764 49.035 C 107.172 48.727 108.308 47.789 108.821 47.363 C 108.85 47.339 108.868 47.305 108.872 47.267 C 108.876 47.23 108.864 47.193 108.841 47.163 C 108.817 47.134 108.783 47.115 108.746 47.111 C 108.096 47.038 106.708 46.904 106.275 46.862 C 106.177 46.853 106.079 46.85 105.981 46.852 C 105.902 46.852 105.824 46.858 105.746 46.87 C 105.518 46.911 105.306 47.014 105.133 47.168 C 104.96 47.323 104.834 47.522 104.768 47.744 C 104.703 47.966 104.7 48.203 104.761 48.426 C 104.839 48.643 104.973 48.835 105.149 48.983 C 105.325 49.131 105.538 49.23 105.765 49.269 C 105.992 49.308 106.225 49.286 106.441 49.205 L 106.467 49.197 C 106.574 49.158 106.674 49.104 106.764 49.035 Z"
        fill="#fffacb"/>
</svg>
