<svg
    xmlns="http://www.w3.org/2000/svg"
    viewBox="0 0 160 200"
    id="vector">
    <path
        id="path"
        d="M 117.621 69.862 C 122.296 61.085 123.591 50.891 121.258 41.225 C 118.926 31.558 113.125 23.076 104.962 17.397 C 96.799 11.718 86.83 9.228 76.955 10.402 C 67.081 11.576 57.973 16.334 51.369 23.769 C 44.765 31.203 41.115 40.809 41.114 50.753 C 41.113 53.172 41.327 55.587 41.752 57.968 C 35.776 61.389 31.112 66.712 28.505 73.085 C 25.898 79.459 25.495 86.524 27.36 93.153 C 29.225 99.781 33.253 105.6 38.801 109.679 C 44.349 113.758 51.104 115.868 57.987 115.671 C 64.87 115.475 71.494 112.983 76.8 108.594 C 79.948 115.587 85.676 121.103 92.783 123.984 C 99.891 126.865 107.843 126.894 114.972 124.066 C 122.1 121.238 127.869 115.765 131.068 108.795 C 134.268 101.825 134.657 93.882 132.154 86.633 C 129.651 79.384 124.444 73.373 117.626 69.862 Z"
        fill="#87bc4b"/>
    <path
        id="path_1"
        d="M 80 167.81 L 80 39.054"
        fill="#00000000"
        stroke="#68493f"
        stroke-width="6.089"
        stroke-linecap="round"/>
    <path
        id="path_2"
        d="M 79.918 106.668 C 79.918 99.771 82.661 93.149 87.539 88.272 C 92.416 83.395 99.038 80.652 105.935 80.652"
        fill="#00000000"
        stroke="#68493f"
        stroke-width="6.089"
        stroke-linecap="round"/>
    <path
        id="path_3"
        d="M 60.685 63.353 C 64.061 63.351 67.38 64.239 70.304 65.927 C 73.228 67.615 75.657 70.044 77.345 72.968 C 79.032 75.892 79.92 79.211 79.918 82.587"
        fill="#00000000"
        stroke="#68493f"
        stroke-width="6.089"
        stroke-linecap="round"/>
    <path
        id="path_4"
        d="M 59.182 187.95 L 45.43 154.305 L 114.407 154.305 L 100.655 187.95 C 100.421 188.522 100.023 189.011 99.51 189.356 C 98.997 189.7 98.393 189.884 97.775 189.884 L 62.062 189.884 C 61.444 189.884 60.84 189.7 60.327 189.356 C 59.814 189.011 59.416 188.522 59.182 187.95 Z"
        fill="#02b5c8"/>
    <path
        id="path_5"
        d="M 44.665 146.588 L 115.171 146.588 C 115.813 146.588 116.429 146.843 116.883 147.297 C 117.337 147.751 117.592 148.367 117.592 149.009 L 117.592 154.184 C 117.592 154.826 117.337 155.442 116.883 155.896 C 116.429 156.35 115.813 156.605 115.171 156.605 L 44.665 156.605 C 44.023 156.605 43.407 156.35 42.953 155.896 C 42.499 155.442 42.244 154.826 42.244 154.184 L 42.244 149.009 C 42.244 148.367 42.499 147.751 42.953 147.297 C 43.407 146.843 44.023 146.588 44.665 146.588 Z"
        fill="#02a1b0"/>
    <path
        id="path_6"
        d="M 61.007 102.268 L 61.007 102.268 L 61.007 102.268 C 58.302 101.941 55.835 100.552 54.153 98.409 C 52.47 96.265 51.708 93.538 52.034 90.833 L 52.034 90.833 L 52.034 90.833 C 54.739 91.16 57.206 92.549 58.888 94.692 C 60.571 96.836 61.333 99.563 61.007 102.268 Z"
        fill="#96ca54"/>
    <path
        id="path_7"
        d="M 52.618 103.095 L 52.618 103.095 L 52.618 103.095 C 51.129 101.52 50.327 99.416 50.387 97.25 C 50.448 95.084 51.368 93.029 52.943 91.54 L 52.943 91.54 L 52.943 91.54 C 54.432 93.115 55.234 95.219 55.174 97.385 C 55.113 99.551 54.193 101.606 52.618 103.095 Z"
        fill="#96ca54"/>
    <path
        id="path_8"
        d="M 56.268 81.041 C 52.762 78.21 48.368 77.563 45.368 79.154 L 45.368 79.154 Q 45.162 79.264 44.968 79.386 C 44.642 79.517 44.303 79.613 43.956 79.672 L 43.956 79.672 C 43.728 79.65 43.498 79.684 43.287 79.771 C 43.075 79.858 42.888 79.996 42.742 80.172 C 42.58 80.38 42.478 80.63 42.45 80.892 C 42.421 81.155 42.466 81.42 42.579 81.659 C 42.62 81.857 42.607 82.062 42.542 82.253 C 42.465 82.437 42.398 82.626 42.342 82.818 L 42.342 82.818 C 41.334 86.107 42.885 90.34 46.442 93.211 C 50.098 96.164 54.716 96.741 57.716 94.882 L 57.716 94.882 L 57.828 94.81 C 58.17 94.687 58.533 94.635 58.896 94.656 C 59.198 94.677 59.498 94.598 59.749 94.43 C 60.001 94.263 60.191 94.017 60.288 93.731 C 60.385 93.445 60.385 93.134 60.288 92.848 C 60.2 92.308 60.247 91.755 60.425 91.238 C 60.436 91.198 60.446 91.159 60.456 91.119 L 60.456 91.119 L 60.456 91.119 C 61.275 87.879 59.711 83.821 56.268 81.041 Z"
        fill="#fede0d"/>
    <path
        id="path_9"
        d="M 46.008 89.11 C 46.294 89.3 46.425 89.381 46.642 89.339 C 46.685 89.33 46.764 89.264 46.691 89.147 C 46.569 88.947 45.71 88.23 45.55 88.413 C 45.39 88.596 45.815 88.981 46.008 89.11 Z"
        fill="#fff063"/>
    <path
        id="path_10"
        d="M 48.226 93.066 C 48.512 93.257 48.643 93.338 48.859 93.295 C 48.903 93.287 48.981 93.22 48.909 93.104 C 48.787 92.909 47.928 92.187 47.768 92.369 C 47.608 92.551 48.033 92.938 48.226 93.066 Z"
        fill="#fff063"/>
    <path
        id="path_11"
        d="M 44.538 89.119 C 44.76 89.267 44.862 89.33 45.031 89.297 C 45.065 89.29 45.126 89.239 45.069 89.148 C 44.969 88.996 44.306 88.435 44.182 88.577 C 44.058 88.719 44.388 89.019 44.538 89.119 Z"
        fill="#fff063"/>
    <path
        id="path_12"
        d="M 46.006 90.408 C 46.126 90.462 46.25 90.506 46.377 90.541 C 46.521 90.589 46.577 90.483 46.523 90.395 C 46.443 90.248 45.833 89.728 45.7 89.883 C 45.567 90.038 45.81 90.325 46.006 90.408 Z"
        fill="#fff063"/>
    <path
        id="path_13"
        d="M 48.888 92.249 C 49.096 92.38 49.188 92.434 49.376 92.366 C 49.398 92.357 49.417 92.342 49.431 92.322 C 49.445 92.303 49.453 92.28 49.455 92.257 C 49.457 92.233 49.453 92.209 49.443 92.188 C 49.37 92.031 48.765 91.504 48.608 91.688 C 48.451 91.872 48.748 92.161 48.888 92.249 Z"
        fill="#fff063"/>
    <path
        id="path_14"
        d="M 47.367 91.527 C 47.48 91.598 47.532 91.627 47.632 91.591 C 47.644 91.586 47.655 91.577 47.662 91.566 C 47.67 91.555 47.675 91.543 47.676 91.529 C 47.677 91.516 47.674 91.503 47.668 91.491 C 47.629 91.406 47.3 91.12 47.215 91.22 C 47.13 91.32 47.291 91.479 47.367 91.527 Z"
        fill="#fff063"/>
    <path
        id="path_15"
        d="M 49.391 90.712 C 49.583 90.844 49.67 90.9 49.803 90.889 C 49.83 90.889 49.875 90.853 49.822 90.779 C 49.733 90.655 49.146 90.171 49.058 90.269 C 48.97 90.367 49.261 90.623 49.391 90.712 Z"
        fill="#fff063"/>
    <path
        id="path_16"
        d="M 46.307 91.743 C 46.42 91.814 46.472 91.843 46.572 91.806 C 46.584 91.801 46.595 91.793 46.603 91.782 C 46.611 91.771 46.616 91.758 46.617 91.745 C 46.618 91.731 46.615 91.718 46.609 91.706 C 46.569 91.62 46.24 91.334 46.155 91.435 C 46.07 91.536 46.231 91.7 46.307 91.743 Z"
        fill="#fff063"/>
    <path
        id="path_17"
        d="M 46.656 87.909 C 46.769 87.98 46.821 88.009 46.921 87.973 C 46.933 87.968 46.944 87.959 46.951 87.948 C 46.959 87.937 46.964 87.925 46.965 87.911 C 46.966 87.898 46.963 87.885 46.957 87.873 C 46.918 87.787 46.589 87.502 46.504 87.602 C 46.419 87.702 46.58 87.861 46.656 87.909 Z"
        fill="#fff063"/>
    <path
        id="path_18"
        d="M 47.734 89.409 C 47.884 89.503 47.953 89.542 48.085 89.493 C 48.108 89.482 48.125 89.462 48.134 89.438 C 48.143 89.415 48.143 89.388 48.133 89.365 C 48.081 89.252 47.646 88.873 47.533 89.007 C 47.42 89.141 47.634 89.345 47.734 89.409 Z"
        fill="#fff063"/>
    <path
        id="path_19"
        d="M 47.653 90.641 C 48 90.878 48.158 90.98 48.401 90.958 C 48.45 90.958 48.532 90.89 48.436 90.758 C 48.276 90.533 47.216 89.658 47.053 89.837 C 46.89 90.016 47.418 90.48 47.653 90.641 Z"
        fill="#fff063"/>
    <path
        id="path_20"
        d="M 92.647 32.055 L 92.647 32.055 L 92.647 32.055 C 95.194 33.025 97.253 34.969 98.367 37.456 C 99.482 39.943 99.563 42.773 98.593 45.32 L 98.593 45.32 L 98.593 45.32 C 96.046 44.35 93.987 42.406 92.873 39.919 C 91.758 37.432 91.677 34.602 92.647 32.055 Z"
        fill="#96ca54"/>
    <path
        id="path_21"
        d="M 100.988 33.278 L 100.988 33.278 L 100.988 33.278 C 101.693 34.528 102.056 35.941 102.041 37.376 C 102.027 38.811 101.635 40.217 100.904 41.452 C 100.174 42.687 99.132 43.708 97.882 44.413 L 97.882 44.413 L 97.882 44.413 C 97.177 43.163 96.814 41.75 96.829 40.315 C 96.843 38.88 97.235 37.474 97.966 36.239 C 98.696 35.004 99.738 33.983 100.988 33.278 Z"
        fill="#96ca54"/>
    <path
        id="path_22"
        d="M 94.692 53.224 C 97.492 56.93 101.492 58.848 104.564 58.249 L 104.564 58.249 C 104.704 58.222 104.843 58.189 104.979 58.149 C 105.311 58.123 105.644 58.135 105.973 58.183 L 105.973 58.183 C 106.168 58.272 106.384 58.31 106.597 58.29 C 106.811 58.271 107.017 58.197 107.193 58.074 C 107.384 57.912 107.523 57.699 107.594 57.459 C 107.665 57.22 107.665 56.964 107.593 56.725 C 107.587 56.534 107.634 56.345 107.728 56.179 C 107.831 56.027 107.925 55.87 108.012 55.709 L 108.012 55.709 C 109.507 52.921 108.768 48.482 105.926 44.724 C 103.003 40.86 98.782 38.94 95.664 39.79 L 95.664 39.79 C 95.624 39.8 95.585 39.812 95.547 39.823 C 95.197 39.835 94.848 39.775 94.522 39.649 C 94.332 39.57 94.125 39.54 93.921 39.563 C 93.717 39.585 93.521 39.659 93.353 39.777 C 93.185 39.914 93.057 40.093 92.98 40.296 C 92.903 40.499 92.882 40.718 92.917 40.932 C 92.91 41.448 92.772 41.954 92.517 42.403 L 92.468 42.503 L 92.468 42.503 L 92.468 42.503 C 91.16 45.308 91.94 49.585 94.692 53.224 Z"
        fill="#fede0d"/>
    <path
        id="path_23"
        d="M 104.231 47.806 C 104 47.552 103.892 47.442 103.672 47.431 C 103.627 47.431 103.535 47.475 103.577 47.605 C 103.649 47.824 104.308 48.732 104.507 48.593 C 104.706 48.454 104.387 47.978 104.231 47.806 Z"
        fill="#fff063"/>
    <path
        id="path_24"
        d="M 102.827 44.072 C 102.596 43.818 102.489 43.708 102.268 43.697 C 102.224 43.697 102.131 43.74 102.174 43.871 C 102.245 44.09 102.904 44.998 103.104 44.859 C 103.304 44.72 102.983 44.244 102.827 44.072 Z"
        fill="#fff063"/>
    <path
        id="path_25"
        d="M 105.842 49.083 C 105.662 48.883 105.578 48.8 105.407 48.791 C 105.372 48.791 105.301 48.825 105.334 48.926 C 105.389 49.097 105.902 49.803 106.057 49.695 C 106.212 49.587 105.963 49.216 105.842 49.083 Z"
        fill="#fff063"/>
    <path
        id="path_26"
        d="M 101.988 44.705 C 101.817 44.528 101.737 44.452 101.542 44.474 C 101.519 44.478 101.497 44.488 101.479 44.503 C 101.461 44.518 101.447 44.538 101.439 44.56 C 101.431 44.583 101.429 44.607 101.434 44.63 C 101.467 44.801 101.927 45.458 102.124 45.315 C 102.321 45.172 102.1 44.825 101.988 44.705 Z"
        fill="#fff063"/>
    <path
        id="path_27"
        d="M 103.289 45.773 C 103.197 45.673 103.153 45.636 103.047 45.647 C 103.034 45.649 103.023 45.655 103.013 45.663 C 103.003 45.671 102.996 45.682 102.992 45.694 C 102.987 45.706 102.986 45.719 102.989 45.732 C 103.006 45.825 103.256 46.182 103.363 46.105 C 103.47 46.028 103.352 45.838 103.289 45.773 Z"
        fill="#fff063"/>
    <path
        id="path_28"
        d="M 104.37 45.82 C 104.277 45.72 104.233 45.682 104.128 45.694 C 104.115 45.696 104.103 45.702 104.093 45.71 C 104.084 45.718 104.076 45.729 104.072 45.741 C 104.067 45.753 104.067 45.766 104.069 45.779 C 104.087 45.872 104.337 46.229 104.444 46.151 C 104.551 46.073 104.432 45.885 104.37 45.82 Z"
        fill="#fff063"/>
    <path
        id="path_29"
        d="M 103.105 49.456 C 103.013 49.356 102.969 49.319 102.863 49.33 C 102.85 49.332 102.839 49.338 102.829 49.346 C 102.819 49.354 102.812 49.365 102.808 49.377 C 102.803 49.389 102.802 49.402 102.805 49.415 C 102.823 49.508 103.072 49.865 103.179 49.787 C 103.286 49.709 103.168 49.521 103.105 49.456 Z"
        fill="#fff063"/>
    <path
        id="path_30"
        d="M 102.421 47.74 C 102.298 47.613 102.241 47.558 102.101 47.574 C 102.076 47.579 102.054 47.594 102.04 47.615 C 102.025 47.635 102.019 47.661 102.023 47.686 C 102.047 47.809 102.377 48.281 102.523 48.179 C 102.669 48.077 102.5 47.826 102.421 47.74 Z"
        fill="#fff063"/>
    <path
        id="path_31"
        d="M 125.661 99.058 L 125.661 99.058 L 125.661 99.058 C 124.793 101.337 123.053 103.18 120.827 104.178 C 118.602 105.175 116.068 105.248 113.789 104.38 L 113.789 104.38 L 113.789 104.38 C 114.657 102.101 116.397 100.258 118.623 99.26 C 120.848 98.263 123.382 98.19 125.661 99.058 Z"
        fill="#96ca54"/>
    <path
        id="path_32"
        d="M 124.566 106.521 L 124.566 106.521 L 124.566 106.521 C 123.448 107.151 122.183 107.476 120.9 107.463 C 119.616 107.45 118.358 107.099 117.253 106.446 C 116.148 105.793 115.234 104.86 114.604 103.742 L 114.604 103.742 L 114.604 103.742 C 115.722 103.112 116.987 102.787 118.27 102.8 C 119.554 102.813 120.812 103.164 121.917 103.817 C 123.022 104.47 123.936 105.403 124.566 106.521 Z"
        fill="#96ca54"/>
    <path
        id="path_33"
        d="M 107.812 99.2 C 104.3 101.856 102.412 105.55 102.882 108.333 L 102.882 108.333 C 102.904 108.46 102.93 108.585 102.961 108.708 C 102.976 109.012 102.956 109.316 102.902 109.615 L 102.902 109.615 C 102.813 109.789 102.773 109.983 102.784 110.178 C 102.796 110.373 102.86 110.561 102.969 110.723 C 103.12 110.894 103.318 111.017 103.539 111.076 C 103.759 111.134 103.992 111.126 104.208 111.052 C 104.381 111.041 104.554 111.079 104.708 111.16 C 104.846 111.25 104.989 111.332 105.136 111.406 L 105.136 111.406 C 107.678 112.691 111.811 111.895 115.372 109.201 C 119.034 106.432 120.931 102.534 120.229 99.717 L 120.229 99.717 C 120.22 99.682 120.21 99.647 120.201 99.617 C 120.201 99.294 120.266 98.975 120.391 98.678 C 120.47 98.509 120.503 98.322 120.488 98.136 C 120.473 97.95 120.409 97.771 120.304 97.617 C 120.177 97.467 120.012 97.353 119.826 97.289 C 119.64 97.225 119.44 97.212 119.247 97.252 C 118.776 97.261 118.31 97.15 117.894 96.929 L 117.801 96.887 L 117.801 96.887 C 115.245 95.764 111.26 96.593 107.812 99.2 Z"
        fill="#fede0d"/>
    <path
        id="path_34"
        d="M 115.523 107.783 C 115.791 107.538 115.907 107.424 115.923 107.191 C 115.923 107.144 115.877 107.046 115.739 107.091 C 115.508 107.166 114.547 107.864 114.694 108.075 C 114.841 108.286 115.341 107.948 115.523 107.783 Z"
        fill="#fff063"/>
    <path
        id="path_35"
        d="M 112.224 109.236 C 112.31 109.127 112.388 109.011 112.456 108.889 C 112.542 108.753 112.447 108.674 112.344 108.701 C 112.172 108.746 111.482 109.24 111.607 109.416 C 111.732 109.592 112.089 109.416 112.224 109.236 Z"
        fill="#fff063"/>
    <path
        id="path_36"
        d="M 113.722 108.124 C 113.822 108.024 113.868 107.98 113.855 107.868 C 113.853 107.855 113.847 107.842 113.838 107.832 C 113.829 107.821 113.818 107.813 113.805 107.809 C 113.792 107.804 113.778 107.803 113.765 107.806 C 113.665 107.825 113.29 108.089 113.371 108.206 C 113.452 108.323 113.654 108.19 113.722 108.124 Z"
        fill="#fff063"/>
    <path
        id="path_37"
        d="M 113.4 105.837 C 113.584 105.674 113.664 105.598 113.687 105.459 C 113.687 105.431 113.668 105.376 113.578 105.411 C 113.428 105.472 112.778 105.95 112.859 106.066 C 112.94 106.182 113.278 105.947 113.4 105.837 Z"
        fill="#fff063"/>
    <path
        id="path_38"
        d="M 113.673 109.268 C 113.773 109.168 113.818 109.123 113.806 109.012 C 113.804 108.999 113.798 108.986 113.789 108.976 C 113.78 108.965 113.769 108.957 113.756 108.953 C 113.743 108.948 113.729 108.947 113.716 108.95 C 113.616 108.968 113.24 109.233 113.322 109.35 C 113.404 109.467 113.6 109.334 113.673 109.268 Z"
        fill="#fff063"/>
    <path
        id="path_39"
        d="M 109.825 107.929 C 109.925 107.829 109.97 107.785 109.958 107.673 C 109.954 107.653 109.942 107.635 109.926 107.624 C 109.909 107.612 109.888 107.607 109.868 107.611 C 109.768 107.63 109.392 107.895 109.474 108.011 C 109.556 108.127 109.756 108 109.825 107.929 Z"
        fill="#fff063"/>
    <path
        id="path_40"
        d="M 111.641 107.205 C 111.775 107.076 111.833 107.014 111.816 106.866 C 111.813 106.848 111.805 106.831 111.794 106.818 C 111.782 106.804 111.767 106.793 111.75 106.787 C 111.733 106.782 111.715 106.78 111.697 106.784 C 111.568 106.809 111.068 107.159 111.176 107.309 C 111.284 107.459 111.549 107.293 111.641 107.205 Z"
        fill="#fff063"/>
    <path
        id="path_41"
        d="M 112.885 107.6 C 113.218 107.3 113.363 107.168 113.402 106.912 C 113.41 106.861 113.365 106.76 113.202 106.824 C 112.93 106.932 111.759 107.796 111.902 108.01 C 112.045 108.224 112.66 107.8 112.885 107.6 Z"
        fill="#fff063"/>
</svg>
